<svg enable-background="new 0 0 248.1 51.9" viewBox="0 0 248.1 51.9" xmlns="http://www.w3.org/2000/svg"><g fill="#fff"><path d="m28.5 12.1c-5.4-3.7-12.8-2.2-16.4 3.2s-2.2 12.8 3.2 16.4 12.7 2.3 16.4-3.1c1.3-2 2-4.3 2-6.6 0-4-1.9-7.7-5.2-9.9m-6.6 25.6c-8.7 0-15.8-7-15.8-15.7s7-15.8 15.7-15.8 15.8 7 15.8 15.7-7 15.8-15.7 15.8zm13.4-26.8-2.3-2.2 10.8-8.7zm-35.3 33 8.6-10.9 2.2 2.2z"/><path d="m206.7 33.5h-2.5v-23h3.3v23zm-7.1 0h-13.7v-.9-21.2-.9h3.3v19.8h11.3v3.2zm-41.8-11.5c0-1.2 0-2.2-.1-3.1v-.4c0-.5-.1-.9-.1-1.4l-.1-.4c0-.1-.1-.2-.1-.4-.2-.6-.6-1.1-1-1.5l-.1-.1-.3-.3h-.1l-.1-.1c-.1-.1-.2-.1-.3-.2l-.3-.2c-.1-.1-.2-.1-.3-.2-.6-.2-1.3-.4-1.9-.4h-.2c-.6 0-1.1.1-1.6.4l-.3.1c-.5.2-.9.5-1.3.9l-.1.1c0 .1-.1.1-.1.2-.1.1-.1.2-.2.3-.4.5-.6 1.1-.7 1.7v.3.1.4.4.5c0 .8-.1 1.8-.1 3.1 0 1.2 0 2.2.1 3v.4c0 .6.1 1 .1 1.4 0 .1.1.3.1.4l.1.4c.2.5.5 1 .9 1.5l.1.1.2.2.2.2c.3.3.7.5 1.1.7l.2.1.2.1c.4.1.9.2 1.4.2.6 0 1.3-.1 1.9-.3l.3-.1c.5-.2.9-.5 1.3-.9l.2-.3.2-.3c.4-.5.6-1.1.7-1.7 0-.1 0-.2.1-.4s0-.3 0-.5c-.1-1 0-2.3 0-4zm3.3 0v.1 1.8.3 1.2.4.4c0 .5-.1.9-.2 1.4l-.1.4-.1.2c-.1.5-.3.9-.6 1.4 0 .1-.1.2-.1.3v.1c-.3.4-.6.8-1 1.2l-.3.3-.4.3c-.6.5-1.3.9-2 1.2-.1.1-.3.1-.4.2l-.4.1c-.8.2-1.6.3-2.4.3-1.1 0-2.2-.2-3.2-.6l-.4-.2c-.1-.1-.3-.1-.4-.2-.6-.3-1.2-.8-1.7-1.3l-.1-.1c-.1-.1-.3-.3-.4-.4s-.2-.3-.4-.5c-.5-.7-.9-1.5-1.2-2.3l-.1-.4c0-.1 0-.3-.1-.5s0-.4-.1-.6c-.1-1.1-.1-2.6-.1-4.5 0-1.4 0-2.5.1-3.4 0-.2 0-.3 0-.4.1-.7.1-1.3.2-1.7v-.3c0-.1 0-.1.1-.2.1-.5.3-1 .6-1.4l.1-.3.1-.3c.3-.4.6-.8 1-1.2l.3-.3c.1-.1.2-.2.4-.3.6-.5 1.3-.9 2-1.2l.4-.2.4-.1c.8-.2 1.6-.3 2.4-.3 1.1 0 2.2.2 3.2.6l.4.2c.1.1.3.1.4.2.5.3 1.1.7 1.5 1.1l.3.3.1.1.1.1c.1.1.2.2.3.3l.1.1v.1l.3.3c.1.1.2.2.2.4.1.1.1.2.2.4.3.5.5 1.1.6 1.6l.1.4v.2s0 .2 0 .3c.1.4.1 1 .1 1.6v.1.4.4c.2.6.2 1.5.2 2.4zm68.1 11.6h-2.8v-14c.1-1.6-.4-3.2-1.4-4.5-1.1-1.1-2.6-1.6-4.1-1.5-.8 0-1.6.1-2.4.4l-.3.1c-.5.2-1 .6-1.4 1-.1.1-.3.3-.4.4-.1.2-.2.3-.3.5-.6 1.1-.8 2.3-.8 3.5v14h-3.3v-22.7h3.3v1.8c1.6-1.4 3.7-2.2 5.9-2.1 1.2 0 2.4.2 3.5.6.3.1.7.3 1 .4.6.3 1.2.8 1.7 1.3.2.2.4.5.6.7s.4.5.5.7c.8 1.5 1.2 3.2 1.2 4.8v14.4zm-47.5.1h-2.8v-14.2c.1-1.7-.4-3.3-1.4-4.6-1.1-1.1-2.6-1.6-4.2-1.5-.8 0-1.7.1-2.4.4l-.3.1c-.5.2-1 .6-1.4 1-.1.1-.3.3-.4.5s-.2.3-.3.5c-.6 1.1-.8 2.3-.8 3.5v14.2h-3.3v-23h3.3v1.9c.6-.6 1.4-1 2.1-1.4 1.2-.5 2.5-.8 3.8-.8 1.2 0 2.4.2 3.6.6.3.1.7.3 1 .5.6.4 1.2.8 1.7 1.3.8.8 1.4 1.8 1.7 2.8.4 1.2.6 2.4.6 3.6v14.6zm-40.6-6.8v.5.5s0 .2 0 .3c-.1.5-.2 1-.4 1.5l-.3.6c-.4.6-.8 1.1-1.3 1.5l-.3.2h-.1l-.5.3-.5.3c-.2.1-.3.2-.5.2-.2.1-.4.1-.6.2-1.1.3-2.2.5-3.3.5-.7 0-1.5-.1-2.2-.2l-.3-.1c-.6-.1-1.1-.3-1.7-.5-.2-.1-.4-.2-.5-.2s-.4-.2-.5-.3c-.9-.5-1.7-1.1-2.4-1.8l-.2-.2-.4-.4.4-.4.2-.2 1.1-1.1.2-.1.4-.4.3.4.2.2.2.2.2.2c.3.3.6.5.9.8l.2.1.2.1c.3.2.6.3.9.4h.1l.3.1h.1l.3.1.3.1.3.1c.6.1 1.1.1 1.7.1h.2.7.2c.3 0 .6-.1.9-.2h.1.1c.1 0 .3-.1.4-.1l.1-.1.1-.1c.2-.1.4-.3.6-.4l.3-.3.3-.3c.4-.6.6-1.3.6-2.1v-.2c0-.2 0-.3 0-.5v-.1c0-.2-.1-.4-.2-.7v-.1s0-.1-.1-.1c0 0 0-.1-.1-.1-.1-.2-.3-.4-.4-.5s-.1-.1-.1-.1l-.2-.1-.2-.1-.3-.1c-.6-.2-1.1-.3-1.7-.4h-.2l-2.3-.4h-.1c-.3 0-.5-.1-.8-.1s-.5-.1-.8-.2c-1.1-.3-2.2-.9-3-1.7l-.5-.2-.3-.3c-.1-.2-.2-.3-.3-.5-.6-1-.9-2.1-.8-3.3 0-.5 0-.9.1-1.4 0-.1 0-.2 0-.2.1-.4.2-.7.3-1.1 0-.1.1-.2.2-.3l.2-.3c.3-.6.7-1.1 1.2-1.6v-.1l.1-.1c.1-.1.3-.2.4-.3l.1-.1.1-.1.5-.3c.2-.1.3-.2.5-.3l.5-.2c1-.3 2-.5 3.1-.5 1.2 0 2.4.2 3.6.6h.1l.2.2.1.1c.2.1.3.1.4.2.8.4 1.5.9 2.2 1.5l.2.2.4.4-.4.4-.2.2-1.1 1.1-.2.2-.3.3-.4-.3-.2-.2c-.1-.1-.2-.2-.3-.2s-.2-.2-.3-.2c-.5-.4-1-.6-1.6-.9l-.3-.1-.3-.1c-.5-.1-1.1-.2-1.7-.2h-.4-.6-.2c-.3 0-.6.1-.9.2l-.2.1-.2.1-.1.1c-.3.1-.5.3-.7.5l-.1.1-.1.1c-.2.2-.4.5-.5.8v.1.1s0 .1-.1.2c-.1.4-.2.8-.1 1.2 0 .2 0 .5.1.7v.1c0 .2.1.3.1.5 0 .1 0 .1.1.1 0 .1.1.1.1.1.1.2.3.4.5.6l.3-.1.1.1c.3.2.6.4.9.5l.2.1.2.1c.4.1.8.2 1.2.3h.2l1.8.3c.4.1.7.1 1.1.2h.1.1l.5.1c.2 0 .3.1.5.1s.3.1.4.1c.7.2 1.3.6 1.9 1l.3.3.3.3c.4.5.8 1 1.1 1.6 0 .1.1.2.1.3l.1.4c.1.5.2 1 .3 1.5zm-20 6.5h-2.4v-23h3.2v23zm-9.5-16.4c0-.3 0-.6-.1-.9v-.1c0-.2-.1-.4-.2-.6l-.1-.2-.1-.2c-.2-.3-.4-.5-.6-.7-.1 0-.1-.1-.2-.1h-.1l-.2-.1c-.1 0-.2-.1-.3-.1l-.3-.1c-.6-.2-1.1-.3-1.7-.2h-5.7v7.2h5.8.6.2c.3 0 .5-.1.8-.2h.1c.1 0 .2-.1.3-.1l.1-.1.1-.1c.2-.1.4-.2.5-.4l.1-.1.1-.1c.2-.2.4-.5.5-.8 0-.1.1-.1.1-.2s0-.1.1-.2c.2-.6.2-1.1.2-1.6zm2.7 16.4h-2.4l-.1-.3-.1-.1-4.9-9.5h-4.7v9.9h-3.1v-23h9.4.4.3c.5.1 1 .2 1.4.3l.2.1.3.2.3.1.3.1c.3.2.6.4.9.6l.3.2.1.1.1.1.1.1c.1.1.3.2.4.4l.1.1.3.4c.1.1.2.3.3.4s.2.3.2.5c.3.7.5 1.5.5 2.3v1 .3.3c-.1.4-.2.9-.3 1.3l-.2.5-.2.5c-.1.2-.3.4-.4.6-.1.1-.2.2-.3.3l-.2.2-.2.2c-.4.4-.9.7-1.3 1l-.2.1-.6.3c-.2.1-.5.2-.8.3l4.7 9 .2.4.4.7zm-22.8-6.6v-.1c0-.2 0-.4 0-.5v-.1c0-.2-.1-.5-.2-.7v-.1l-.1-.1s0-.1-.1-.1l-.1-.3c-.1-.2-.3-.4-.5-.6-.1-.1-.2-.1-.2-.2l-.1-.1-.3-.1-.3-.1-.3-.1c-.6-.2-1.2-.3-1.8-.3h-5.7v7.3h5.6c1.1.1 2.2-.3 3-1l.2-.2.2-.2.1-.2c.1-.1.1-.2.1-.3.4-.6.5-1.3.5-1.9zm-.3-10c0-.3 0-.6-.1-.8v-.1c0-.2-.1-.4-.2-.6 0-.1 0-.1-.1-.2 0-.1-.1-.1-.1-.2-.2-.3-.4-.5-.6-.7l-.1-.1-.2-.1h-.1l-.2-.1-.3-.1-.2-.1c-.6-.2-1.1-.2-1.7-.2h-5.4v6.8h5.3.9.2c.2-.1.4-.1.6-.2h.1l.2-.1c.3-.1.5-.3.8-.4l.2-.1.1-.1c.2-.2.4-.5.5-.8 0-.1 0-.1.1-.2l.1-.2c.1-.5.2-1 .2-1.4zm3.5 10v.5.5s0 .2 0 .3c-.1.5-.2.9-.4 1.4l-.2.4-.1.3-.2.3c-.3.4-.6.8-1 1.2l-.1.1-.1.1-.2.2-.6.3-.2.1-.2.1c-.3.1-.6.3-.9.4h-.3l-.4.1c-.5.1-1.1.2-1.6.2h-9.4v-23h8.7c.5 0 .9 0 1.4.1h.2c.4.1.7.2 1.1.3l.3.1.3.1c.6.3 1.1.6 1.6 1l.3.3.2.2v.1l.1.1c.1.1.2.3.3.4s.2.3.3.4c.1.2.2.3.2.5.4.9.5 1.8.5 2.7 0 .6-.1 1.2-.3 1.8v.3c-.2.5-.4.9-.7 1.3-.1.1-.1.2-.2.3s-.2.2-.2.3l-.2.2c-.1.1-.1.1-.2.2l-.3.2.2.1c.5.4 1 .8 1.4 1.4l.1.1.2.3v.1.1c0 .1.1.2.2.3 0 .1.1.2.2.4s.1.2.1.4c.1.8.2 1.6.1 2.4zm-21.8 6.6h-2.4v-23h3.2v23zm-5.5 0h-2.4l-.2-.3v-.1l-6.3-11-4.2 5.1v6.3h-3.2v-23h3.2v12l9.5-11.7.1-.1.2-.2h3.9l-.7.8-.3.4-6.3 7.8 7.5 12.8.2.4.4.8zm179.9.1h-13.7v-23h14.6v3.2h-11.2v6.6h9.6v3.2h-9.6v6.8h11.2v3.2z"/><path d="m130.1 41.7h1.5l-4.7 4.7 4.9 5.3h-1.5l-4.1-4.6-.3.3v4.3h-1.1v-10h1.1v4.3z"/><path d="m134.1 51.7h-1.1v-6.2h1.1z"/><path d="m136.2 40.7h1.1v5.6c.5-.7 1.3-1.1 2.1-1.1 1.8.1 3.2 1.7 3 3.5-.1 1.6-1.4 2.9-3 3-.8 0-1.6-.3-2.1-1v.9h-1.1zm1 7.8c-.1 1.2.7 2.2 1.9 2.4h.1c1.2 0 2.1-1 2.1-2.2 0-.1 0-.1 0-.2.1-1.1-.7-2.2-1.9-2.3-.1 0-.1 0-.2 0-1.1.1-2 1.1-2 2.3z"/><path d="m144.9 46.1c.3-.5.8-.8 1.4-.8.4 0 .7.1 1 .3l-.5 1c-.2-.2-.4-.3-.6-.3-1.2 0-1.2 1.5-1.2 2.3v3.1h-1.1v-6.3h1.1z"/><path d="m149.6 51.7h-1.1v-6.2h1.1z"/><path d="m154.4 46.9c-.1-.4-.5-.6-.8-.6-.4 0-.7.3-.8.7 0 .6.7.8 1.4 1.1.8.2 1.4.9 1.4 1.8 0 1.1-.9 2-2 2h-.1c-1 0-1.9-.6-2.2-1.6l.9-.4c.3.6.6 1 1.3 1 .6 0 1-.4 1-1 0-1.4-2.8-.9-2.8-2.9 0-1 .8-1.8 1.8-1.8h.1c.7 0 1.4.5 1.6 1.2z"/><path d="m161.2 40.7h1.1v5.6c.5-.7 1.3-1.1 2.1-1.1 1.8.2 3.1 1.8 2.9 3.7-.2 1.5-1.4 2.8-2.9 2.9-.8 0-1.6-.3-2.1-1v.9h-1.1zm1 7.8c-.1 1.2.7 2.2 1.9 2.4h.1c1.2 0 2.1-1 2.1-2.1 0-.1 0-.1 0-.2.1-1.1-.7-2.2-1.9-2.3-.1 0-.1 0-.2 0-1.2 0-2.1 1-2 2.2z"/><path d="m170.4 43.1c0 .4-.3.8-.8.8-.4 0-.8-.3-.8-.8 0-.4.3-.8.8-.8.4 0 .8.4.8.8zm-.3 8.6h-1.1v-6.2h1.1z"/><path d="m177.9 50.7v1h-6.4l4.5-5.3h-3.7v-1h5.8l-4.5 5.3z"/><path d="m180.7 43.1c0 .4-.3.8-.8.8-.4 0-.8-.3-.8-.8 0-.4.3-.8.8-.8s.8.4.8.8zm-.2 8.6h-1.1v-6.2h1.1z"/><path d="m183.8 46.1c.3-.5.9-.8 1.5-.8.7 0 1.4.4 1.7 1 .4-.6 1.1-1 1.9-1 1.6 0 2 1.3 2 2.6v3.8h-1.1v-3.7c0-.8-.1-1.8-1.1-1.8s-1.4 1.2-1.4 2.1v3.3h-1.1v-3.5c0-.8-.1-1.9-1.1-1.9-1.2 0-1.4 1.3-1.4 2.2v3.2h-1.1v-6.2h1.1z"/><path d="m193.9 51.7h-1.1v-11h1.1z"/><path d="m196.4 48.8c0 1.1.8 2 1.9 2.1h.1c.8 0 1.6-.5 1.9-1.3l.9.5c-.5 1.1-1.7 1.8-2.9 1.8-1.7 0-3-1.3-3-3 0-.1 0-.1 0-.2 0-1.8 1.1-3.4 3-3.4s3.1 1.7 3 3.5zm3.8-.9c-.1-.9-.9-1.6-1.8-1.6s-1.7.7-1.9 1.6z"/><path d="m214.4 48.3c0 2.3-1.9 3.6-4.1 3.6s-4.1-1.3-4.1-3.6 1.9-3.6 4.1-3.6 4.1 1.3 4.1 3.6zm-5.7 0c0 .9.7 1.6 1.6 1.6s1.6-.7 1.6-1.6-.7-1.6-1.6-1.6-1.6.7-1.6 1.6z"/><path d="m217.9 45.8c.5-.7 1.3-1.2 2.2-1.1 1.8 0 2.6 1.2 2.6 2.8v4.2h-2.4v-3.3c0-.7.1-1.8-1.1-1.8-1 0-1.3.7-1.3 1.6v3.5h-2.4v-6.8h2.4z"/><path d="m226.6 51.7h-2.4v-11h2.4z"/><path d="m230.8 42.3c0 .7-.6 1.4-1.4 1.4-.7 0-1.3-.6-1.3-1.3s.6-1.3 1.3-1.4c.8-.1 1.4.5 1.4 1.3zm-.2 9.4h-2.4v-6.8h2.4z"/><path d="m234.6 45.8c.5-.7 1.3-1.2 2.2-1.1 1.8 0 2.6 1.2 2.6 2.8v4.2h-2.4v-3.3c0-.7.1-1.8-1.1-1.8-1 0-1.3.7-1.3 1.6v3.5h-2.4v-6.8h2.4z"/><path d="m248 48.7h-5.1c-.1.7.4 1.4 1.2 1.5h.3c.5 0 .9-.2 1.1-.6h2.3c-.5 1.5-1.9 2.5-3.5 2.3-2.3 0-3.9-1.3-3.9-3.6 0-2.1 1.8-3.7 3.8-3.7 2.1 0 3.7 1.8 3.7 3.8zm-2.2-1.4c-.1-.6-.7-1.1-1.4-1.1s-1.3.4-1.4 1.1z"/></g></svg>