<svg viewBox="0 0 421.6 444.67" xmlns="http://www.w3.org/2000/svg"><g fill="#fff"><circle cx="210.8" cy="243.07" r="147.2" transform="matrix(.92407978 -.38219964 .38219964 .92407978 -76.91 99.04)"/><path d="m256.7 427.67c0 9.39-7.22 17-16.13 17h-59.57c-8.91 0-16.13-7.61-16.13-17s7.22-17 16.13-17h59.54c8.91 0 16.13 7.61 16.13 17z"/><path d="m25.5 312.92c-14.08 0-25.5-10.83-25.5-24.19v-89.32c0-13.36 11.42-24.19 25.5-24.19s25.5 10.83 25.5 24.19v89.32c0 13.36-11.42 24.19-25.5 24.19z"/><path d="m396.1 312.92c-14.08 0-25.5-10.83-25.5-24.19v-89.32c0-13.36 11.42-24.19 25.5-24.19s25.5 10.83 25.5 24.19v89.32c0 13.36-11.42 24.19-25.5 24.19z"/><path d="m210.8 50.27c-106.86 0-193.8 86.94-193.8 193.8h17c0-97.49 79.31-176.8 176.8-176.8s176.8 79.31 176.8 176.8-79.31 176.8-176.8 176.8v17c106.86 0 193.8-86.94 193.8-193.8s-86.94-193.8-193.8-193.8z"/></g><g fill="#e21e24"><path d="m164.62 198.41v6.72c0 2.1.68 2.85 2.85 2.85h7c2.1 0 2.85-.75 2.85-2.85v-6.72h3.46c2.1 0 2.85-.74 2.85-2.85v-4.75c0-2.1-.75-2.84-2.85-2.84h-3.46v-25.31c0-2.1-.75-2.85-2.85-2.85h-6.72a4.67 4.67 0 0 0 -4.41 2l-20.62 24.62c-1.29 1.56-1.49 2.24-1.49 4.62v4.47c0 2.11.74 2.85 2.85 2.85zm0-21.91v11.5h-9.49z"/><path d="m209.2 198.41v6.72c0 2.1.67 2.85 2.85 2.85h7c2.11 0 2.85-.75 2.85-2.85v-6.72h3.46c2.11 0 2.85-.74 2.85-2.85v-4.75c0-2.1-.74-2.84-2.85-2.84h-3.46v-25.31c0-2.1-.74-2.85-2.85-2.85h-6.71a4.66 4.66 0 0 0 -4.41 2l-20.63 24.62c-1.28 1.56-1.49 2.24-1.49 4.62v4.47c0 2.11.75 2.85 2.85 2.85zm0-21.91v11.5h-9.5z"/><path d="m269.92 188h-3.46v-25.34c0-2.1-.75-2.85-2.85-2.85h-6.72a4.67 4.67 0 0 0 -4.41 2l-20.62 24.62c-1.29 1.56-1.5 2.24-1.5 4.62v4.47c0 2.11.75 2.85 2.85 2.85h20.56v6.72c0 2.1.68 2.85 2.85 2.85h7c2.1 0 2.85-.75 2.85-2.85v-6.72h3.46c2.1 0 2.84-.74 2.84-2.85v-4.75c-.01-2.06-.77-2.77-2.85-2.77zm-16.15 0h-9.5l9.5-11.47z"/><path d="m182.87 302.37h-3.46v-25.31c0-2.1-.74-2.85-2.85-2.85h-6.71a4.66 4.66 0 0 0 -4.41 2l-20.63 24.62c-1.28 1.56-1.49 2.24-1.49 4.62v4.55c0 2.1.75 2.84 2.85 2.84h20.56v6.72c0 2.1.68 2.85 2.85 2.85h7c2.11 0 2.85-.75 2.85-2.85v-6.72h3.46c2.11 0 2.85-.74 2.85-2.84v-4.75c-.02-2.14-.74-2.88-2.87-2.88zm-16.14 0h-9.5l9.5-11.47z"/><path d="m221.54 297.14a11.16 11.16 0 0 0 5.3-9.9 12.86 12.86 0 0 0 -4.35-10.24c-2.91-2.51-7.05-3.79-12.41-3.79-10.38 0-17 3.93-20 11.87-.75 2-.14 3.05 1.83 3.66l6.65 2.38c2 .74 2.91.27 3.66-1.84 1.29-3.25 2.78-4.41 6.38-4.41 3 0 4.61 1.23 4.61 3.74s-1.56 3.73-4.61 3.73h-3c-2.17 0-2.85.74-2.85 2.91v5.63c0 2.11.68 2.85 2.85 2.85h4.14c3 0 4.48 1.36 4.48 4s-1.77 4-5.29 4-5.77-1.49-6.86-4.41c-.81-2.17-1.56-2.58-3.66-1.83l-6.65 2.37q-2.85.92-1.83 3.67c2.92 7.93 9.57 11.87 20 11.87 12.21 0 18.32-5.36 18.32-14.86q.01-7.83-6.71-11.4z"/><path d="m264 297.14a11.15 11.15 0 0 0 5.29-9.9 12.86 12.86 0 0 0 -4.29-10.24c-2.91-2.51-7-3.79-12.41-3.79-10.38 0-17 3.93-20 11.87-.75 2-.14 3.05 1.83 3.66l6.65 2.38c2 .74 2.91.27 3.66-1.84 1.29-3.25 2.78-4.41 6.38-4.41 3.05 0 4.61 1.23 4.61 3.74s-1.56 3.73-4.61 3.73h-3c-2.17 0-2.85.74-2.85 2.91v5.63c0 2.11.68 2.85 2.85 2.85h4.14c3 0 4.48 1.36 4.48 4s-1.77 4-5.29 4-5.77-1.49-6.86-4.41c-.81-2.17-1.56-2.58-3.66-1.83l-6.65 2.37q-2.85.92-1.83 3.67c2.92 7.93 9.57 11.87 20 11.87 12.21 0 18.32-5.36 18.32-14.86q-.03-7.83-6.76-11.4z"/><path d="m207.06 265.69c12.21 0 19.33-6.65 19.33-17.71v-14.86c0-10.85-7.12-17.63-19.33-17.63s-19.33 6.78-19.33 17.63v14.88c0 11 7.12 17.69 19.33 17.69zm-5.9-33.11c0-3.32 2.17-5.22 5.9-5.22s5.9 1.9 5.9 5.22v15.94c0 3.33-2.17 5.3-5.9 5.3s-5.9-2-5.9-5.3z"/></g><g fill="#fff"><path d="m40.66 95.92c-5.57-5.73-5.33-12.63 1.12-18.92s13.33-6.29 18.9-.57l8.38 8.57c5.57 5.72 5.33 12.63-1.08 18.88s-13.37 6.33-18.94.6zm17.4-16.92c-4.16-4.27-9.12-4.19-13.9.46s-5 9.64-.87 13.91l8.37 8.63c4.16 4.26 9.16 4.15 13.94-.5s5-9.61.83-13.88z"/><path d="m72.72 52.34c5.79-4.14 11.81-3.25 15.92 2.5s3 11.7-2.81 15.84l-8.9 6.32 7.3 10.22c.45.63.43.95-.19 1.39l-1.37 1c-.62.45-1 .39-1.42-.23l-19.82-27.72c-.44-.62-.38-1 .24-1.42zm10.88 15.74c4-2.87 4.78-7 1.94-11s-7-4.6-11.06-1.73l-8.65 6.19 9.11 12.75z"/><path d="m109.45 31a.88.88 0 0 1 1.33.46l.66 1.26a.88.88 0 0 1 -.39 1.35l-16 8.28 5.82 11.2 13.91-7.22a.88.88 0 0 1 1.33.46l.66 1.26a.88.88 0 0 1 -.39 1.35l-13.91 7.22 6 11.66 16.53-8.59a.87.87 0 0 1 1.32.46l.66 1.27a.88.88 0 0 1 -.39 1.35l-18.88 9.8c-.68.35-1 .24-1.37-.44l-15.61-30.3c-.35-.67-.25-1 .43-1.37z"/><path d="m144.92 17.75c.73-.25 1.05-.09 1.29.64l11 32.27c.25.72.09 1.05-.63 1.29l-1.54.53a1.15 1.15 0 0 1 -1.19-.19l-22.85-16.83a44.62 44.62 0 0 1 -3.69-3.26c-1.45-1.39-2.29-2.12-2.51-2.31l-.2.06c.09.24.58 1.37 1.46 3.32s1.5 3.63 2 5l6.8 20a.87.87 0 0 1 -.58 1.27l-1.5.51c-.72.25-1 .09-1.29-.63l-11-32.28c-.24-.72-.08-1 .64-1.29l1.54-.53a1.24 1.24 0 0 1 1.17.14l22.3 16.54c1.08.81 2.43 1.92 4 3.32s2.43 2.24 2.79 2.49h.14c-.11-.33-.62-1.5-1.54-3.56s-1.6-3.75-2.09-5.2l-6.66-19.55a.87.87 0 0 1 .65-1.24z"/><path d="m186.85.13c5.13-.51 9.38.48 12.63 3a13.82 13.82 0 0 1 5.52 10.05c.46 4.68-.27 8.33-2.26 10.89s-5.45 5-10.4 7.35c-1.91.76-4.31 1.7-5.59 2.34q-1.63.83-1.56 1.68v.38l18.21-1.82c2-.19 2.79.43 3 2.46l.52 5.32c.19 2-.44 2.72-2.46 2.92l-28.46 2.83c-2 .2-2.79-.43-3-2.39l-.5-5.07c-.4-4 .57-7.27 3.13-9.83a39.15 39.15 0 0 1 3.48-3c1-.67 2.47-1.52 4.29-2.53l2.91-1.62c.54-.31 1.32-.84 2.4-1.58a8.7 8.7 0 0 0 2.18-1.88 7 7 0 0 0 1.4-4.67 4 4 0 0 0 -4.72-3.76c-2.59.26-3.94 1.54-5.09 4.72-.76 2.12-1.24 2.42-3.26 2l-6.95-1.81c-1.9-.52-2.5-1.35-2-3.26 2.19-7.61 7.73-11.85 16.58-12.72z"/><path d="m248 28.8c2 .17 2.6.93 2.42 2.9l-.4 4.43c-.17 2-.93 2.6-2.9 2.42l-3.23-.29-.56 6.28c-.18 2-.94 2.59-2.9 2.42l-6.53-.59c-2-.18-2.6-.93-2.42-2.9l.52-6.27-19.19-1.73c-2-.17-2.6-.93-2.42-2.9l.37-4.18c.2-2.21.45-2.83 1.78-4.18l21.37-21.27a4.39 4.39 0 0 1 4.29-1.53l6.27.57c2 .17 2.6.93 2.42 2.9l-2.12 23.63zm-14.12-12.06-9.83 9.91 8.87.79z"/><path d="m299.57 25.58a.87.87 0 0 1 .59 1.27l-10.91 32.31a.88.88 0 0 1 -1.24.66l-1.59-.54c-.73-.25-.89-.57-.64-1.29l5-14.76-18.39-6.23-5 14.76c-.25.72-.52.89-1.24.65l-1.6-.54c-.72-.24-.88-.56-.63-1.29l10.9-32.3c.25-.73.57-.89 1.29-.64l1.6.54c.72.24.83.55.59 1.27l-4.8 14.3 18.37 6.25 4.82-14.27c.24-.72.56-.88 1.29-.64z"/><path d="m305.24 41c3.73-7.07 10.38-9 18.34-4.76s10.1 10.76 6.36 17.76l-5.61 10.62c-3.73 7.08-10.33 8.98-18.33 4.8s-10.14-10.77-6.41-17.83zm21.46 11.31c2.79-5.27 1.18-10-4.71-13.08s-10.73-1.82-13.51 3.45l-5.61 10.62c-2.78 5.26-1.14 10 4.76 13.1s10.68 1.79 13.46-3.47z"/><path d="m333.42 70.55c-3.64 4.83-3 9.69 2.22 13.64s10.08 3.19 13.73-1.65l13.74-18.25c.46-.61.81-.66 1.42-.2l1.35 1c.61.45.66.81.2 1.42l-13.72 18.23c-4.89 6.5-11.68 7.57-18.8 2.22s-8-12.18-3.07-18.69l13.71-18.22c.46-.61.82-.66 1.43-.2l1.34 1c.61.46.66.82.2 1.43z"/><path d="m386.31 84.78c4.68 4.83 4.66 10.37-.13 15-4 3.86-8.7 4.18-12.86 1a7.24 7.24 0 0 1 -.23 4.82l-4 11.81c-.16.79-.56.89-1.09.34l-1.17-1.2q-1.11-1.15-.72-2.07l3.62-10.37c1.21-3.44.85-5.5-1.88-8.31l-4.78-4.94-10.16 9.84c-.55.54-.87.57-1.4 0l-1.17-1.21c-.53-.55-.53-.91 0-1.44l24.5-23.72c.54-.53.9-.52 1.44 0zm-2.73 2.15-7.93-8.19-10.09 9.78 7.93 8.18c3.15 3.26 6.82 3.46 10 .35s3.31-6.79.09-10.12z"/></g></svg>